<?xml version="1.0" encoding="UTF-8" standalone="no"?>
<!-- Created with Inkscape (http://www.inkscape.org/) -->

<svg
   width="228mm"
   height="39mm"
   viewBox="0 0 228 39"
   version="1.1"
   id="svg1"
   inkscape:version="1.4 (e7c3feb100, 2024-10-09)"
   sodipodi:docname="logo.svg"
   xmlns:inkscape="http://www.inkscape.org/namespaces/inkscape"
   xmlns:sodipodi="http://sodipodi.sourceforge.net/DTD/sodipodi-0.dtd"
   xmlns="http://www.w3.org/2000/svg"
   xmlns:svg="http://www.w3.org/2000/svg">
  <sodipodi:namedview
     id="namedview1"
     pagecolor="#ffffff"
     bordercolor="#000000"
     borderopacity="0.25"
     inkscape:showpageshadow="false"
     inkscape:pageopacity="0.0"
     inkscape:pagecheckerboard="false"
     inkscape:deskcolor="#d1d1d1"
     inkscape:document-units="mm"
     showborder="false"
     borderlayer="false"
     labelstyle="default"
     inkscape:zoom="0.62537879"
     inkscape:cx="438.13446"
     inkscape:cy="177.49243"
     inkscape:window-width="1280"
     inkscape:window-height="955"
     inkscape:window-x="0"
     inkscape:window-y="0"
     inkscape:window-maximized="1"
     inkscape:current-layer="layer1" />
  <defs
     id="defs1" />
  <g
     inkscape:label="Layer 1"
     inkscape:groupmode="layer"
     id="layer1">
    <text
       xml:space="preserve"
       style="font-style:normal;font-variant:normal;font-weight:normal;font-stretch:normal;font-size:25.4px;font-family:'DigitalKhatt Madina Quranic';-inkscape-font-specification:'DigitalKhatt Madina Quranic';text-align:start;writing-mode:lr-tb;direction:ltr;text-anchor:start;display:none;fill:#238fc7;fill-opacity:1;stroke-width:0.264583"
       x="-1.6461473"
       y="25.54521"
       id="text1"><tspan
         sodipodi:role="line"
         id="tspan1"
         style="font-style:normal;font-variant:normal;font-weight:normal;font-stretch:normal;font-size:25.4px;font-family:'DigitalKhatt Madina Quranic';-inkscape-font-specification:'DigitalKhatt Madina Quranic';fill:#238fc7;fill-opacity:1;stroke-width:0.264583"
         x="-1.6461473"
         y="25.54521">مُسْتَوْدَعُ البَيَانَاتِ الإِسْلَامِيَّة</tspan></text>
    <path
       d="m 220.60375,24.046606 c -0.2286,0.1524 -0.4826,0.2794 -0.762,0.381 -0.1778,0.0762 -0.381,0.127 -0.5842,0.1778 -0.4064,0.1016 -0.8128,0.1524 -1.2192,0.1524 -0.127,0 -0.127,0 0.0762,-1.1176 0.2032,-1.1176 0.2032,-1.1176 0.3302,-1.1176 0.3302,0 0.6604,0 0.9906,-0.0508 0.381,-0.0762 0.7366,-0.1778 1.0922,-0.381 0.2032,-0.1016 0.4064,-0.254 0.5588,-0.4064 0.2286,-0.2032 0.4318,-0.4572 0.5588,-0.7366 0.3048,-0.6096 0.254,-1.3462 0.5588,-1.981199 0.127,-0.254 0.508,-0.9398 0.8382,-1.3716 0.4318,-0.5588 1.143,-1.143 1.6002,-1.143 1.4224,0 2.4638,3.657599 2.4638,4.927599 0,0.635 -0.2794,1.6764 -0.508,1.6764 -1.143,0 -2.032,0.0254 -2.667,-0.1016 -0.7112,-0.1524 -1.5748,-0.6096 -1.8034,-0.9906 -0.1524,0.381 -0.4318,0.889 -0.508,1.0414 -0.254,0.4318 -0.6096,0.7874 -1.016,1.0414 z m 5.3848,-3.1242 c 0,-0.2032 -0.8636,-2.184399 -1.8288,-2.184399 -0.7874,0 -1.524,1.193799 -1.524,1.320799 0,0.2794 3.3528,1.1684 3.3528,0.8636 z m -5.13079,-8.534394 c 0,-0.3048 2.413,-1.651 3.556,-2.7432003 0.3302,-0.3048 0.6604,-0.7112 0.8636,-0.9906 -0.381,-0.0508 -2.032,-0.7366 -2.032,-1.7272 0,-1.143 1.7272,-2.7177999 2.413,-2.7177999 0.8382,0 1.0668,1.0413999 1.0668,2.0065999 0,1.3462 -0.254,2.6924 -1.1176,3.7084 -1.1938,1.3462003 -3.9116,2.5654003 -4.4196,2.5654003 -0.1524,0 -0.3302,0.0508 -0.3302,-0.1016 z m 3.3528,-5.7404003 c 0.4064,0.3048 1.2192,0.6858 1.7018,0.8636 0.2286,-0.3556 0.0508,-1.905 -0.6096,-1.905 -0.4318,0 -1.0668,0.6096 -1.0922,1.0414 z M 204.95734,24.884818 c -0.1016,0 -0.2032,-0.0254 -0.3048,0 -0.0762,0 -0.1778,0 -0.2794,0.0254 -0.2032,0.0508 -0.4318,0.1016 -0.635,0.1524 -0.254,0.0762 -0.5334,0.1016 -0.8128,0.127 -0.3302,0.0508 -0.6604,0.0762 -0.9906,0.0762 -0.127,0 -0.127,0 0.0762,-1.1176 0.2032,-1.1176 0.2032,-1.1176 0.3302,-1.1176 0.381,0 0.762,0 1.1684,-0.0254 0.3302,-0.0254 0.6604,-0.0508 1.016,-0.1016 0.381,-0.0508 0.762,-0.1016 1.1176,-0.1778 0.254,-0.0508 0.4826,-0.127 0.6858,-0.2286 0.2286,-0.127 0.5588,-0.381 0.7366,-0.5588 0.2794,-0.2794 0.6604,-0.9144 0.7112,-0.9652 0.1524,-0.254 0.3048,-0.7366 0.3556,-0.7366 0.1016,0 0.1778,0.1016 0.1778,0.2032 0,1.3462 -0.9652,2.5908 -0.9652,2.7432 0,0.0762 0.0254,0.1524 0.0762,0.1524 0.7366,0 4.318,-0.4318 5.461,-1.8796 0.4318,-0.5588 0.889,-1.7272 0.9652,-1.7272 0.127,0 0.2032,0.127 0.2032,0.254 0,0.7874 -0.7874,2.032 -0.7874,2.0828 0,0.2032 1.7018,0.762 1.7018,0.762 1.3462,0 1.905,-3.556 2.3622,-3.556 0.127,0 0.1524,0.1778 0.1524,0.3302 0,0.1524 -0.0508,0.4064 -0.0508,0.4318 -0.0508,0.2794 -0.127,0.5588 -0.2032,0.8382 -0.0508,0.2032 -0.127,0.4064 -0.1524,0.6096 0,0.1016 0,0.2032 0.0254,0.3048 0.1016,0.4572 0.6096,0.6096 1.0668,0.7112 0.0762,0.0254 0.1778,0.0254 0.2794,0.0254 0.127,0 0.127,0 -0.0762,1.1176 -0.2032,1.1176 -0.2032,1.1176 -0.3302,1.1176 -0.127,0 -0.2286,-0.0254 -0.3302,-0.0508 -0.3048,-0.127 -0.5842,-0.3048 -0.8382,-0.5334 -0.2286,-0.2286 -0.4064,-0.508 -0.4572,-0.8128 -0.0254,-0.127 -0.0508,-0.2286 -0.0762,-0.2286 -0.0254,0 -0.381,0.6858 -0.4826,0.8128 -0.0762,0.1524 -0.7874,1.016 -0.9652,1.016 -0.762,0 -1.9812,-0.9906 -2.7686,-0.9906 -0.254,0 -0.9398,0.4318 -1.4224,0.635 -0.9906,0.4064 -2.286,0.4572 -3.175,0.4572 -0.4826,0 -0.9652,0.0508 -1.4224,-0.0254 -0.381,-0.0508 -0.635,-0.1524 -1.143,-0.1524 z m 0.20321,-14.401813 c 0,-0.7366003 1.8288,-2.0066003 2.286,-2.0066003 1.524,0 4.1402,0.762 4.1402,0.9398 0,1.2954003 -3.9624,3.1750003 -5.207,3.1750003 -0.1778,0 -0.381,-0.0762 -0.381,-0.2286 0,-0.2794 3.429,-1.651 3.556,-2.159 -0.8636,-0.2540003 -2.3368,-0.2794003 -2.667,-0.2794003 -0.5842,0 -1.3462,0.7112003 -1.524,0.7112003 -0.1016,0 -0.2032,-0.0508 -0.2032,-0.1524 z m -7.34058,12.446005 c -0.2032,0.4572 -0.4064,0.8128 -0.5334,0.9652 -0.254,0.381 -0.6604,0.6096 -1.0668,0.7874 -0.4826,0.2286 -0.9652,0.4318 -1.4732,0.5842 -0.8636,0.2286 -1.7526,0.2794 -2.6416,0.2794 -0.127,0 -0.127,0 0.0762,-1.1176 0.2032,-1.1176 0.2032,-1.1176 0.3302,-1.1176 1.0414,0 2.0828,-0.127 3.0988,-0.4318 0.4318,-0.127 0.8636,-0.3048 1.2446,-0.5842 0.2794,-0.2032 0.508,-0.4572 0.7366,-0.7112 0.1524,-0.1524 0.4064,-0.4064 0.4572,-0.4826 0.0508,-0.0508 0.2032,-0.2286 0.3302,-0.2286 0.0254,0 0.1016,0.0508 0.127,0.0762 0.1016,0.0762 0.381,0.381 0.4572,0.4572 0.4826,0.5334 1.016,0.9652 1.651,1.27 0.3048,0.1524 0.635,0.2794 0.9652,0.3302 0.254,0.0254 0.508,0.0254 0.762,0.0254 0.127,0 0.127,0 -0.0762,1.1176 -0.2032,1.1176 -0.2032,1.1176 -0.3302,1.1176 -0.2794,0 -0.5334,0 -0.7874,-0.0508 -0.3302,-0.0508 -0.6604,-0.1778 -0.9906,-0.3048 -0.9144,-0.4064 -1.778,-0.9906 -2.286,-1.8796 0,-0.0254 -0.0254,-0.0762 -0.0508,-0.1016 z m -1.19381,-4.089413 c -0.4826,-0.3048 -0.9906,-0.5842 -1.4986,-0.8636 -0.127,-0.0762 -0.1524,-0.1778 -0.0762,-0.3048 0.3048,-0.508 0.5842,-0.9906 0.8636,-1.4986 0.0762,-0.127 0.1778,-0.1524 0.3048,-0.0762 0.508,0.2794 0.9906,0.5842 1.4986,0.8636 0.127,0.0762 0.1524,0.1524 0.0762,0.3048 -0.2794,0.4826 -0.5842,0.9906 -0.8636,1.4986 -0.0762,0.127 -0.1524,0.1524 -0.3048,0.0762 z m 2.6924,-0.635 c -0.4826,-0.3048 -0.9906,-0.5842 -1.4986,-0.8636 -0.127,-0.0762 -0.1524,-0.1778 -0.0762,-0.3048 0.3048,-0.508 0.5842,-0.9906 0.8636,-1.4986 0.0762,-0.127 0.1778,-0.1524 0.3048,-0.0762 0.508,0.2794 0.9906,0.5842 1.4986,0.8636 0.127,0.0762 0.1524,0.1524 0.0762,0.3048 -0.2794,0.4826 -0.5842,0.9906 -0.8636,1.4986 -0.0762,0.127 -0.1524,0.1524 -0.3048,0.0762 z m 0.55879,-7.213619 c -2.0066,0.9398 -3.9878,1.8542 -5.9944,2.794 -0.0508,0.0254 -0.127,0 -0.1524,-0.0508 0,-0.3302 0,-0.635 0,-0.9398 -0.0508,-0.0762 0.0508,-0.1524 0.1524,-0.2032 2.0066,-0.9398 3.9878,-1.8542 5.9944,-2.794 0.0508,-0.0254 0.127,0 0.1524,0.0508 0,0.3302 0,0.635 0,0.9398 0.0508,0.0762 -0.0508,0.1524 -0.1524,0.2032 z M 178.99856,32.02221 c 0,-0.1778 0.254,-0.4572 0.4064,-0.4572 0.2032,0 2.5146,0.5588 3.7846,0.5588 4.8768,0 9.4996,-4.6482 9.4996,-7.2136 0,-1.7018 -1.3208,-3.556 -1.8288,-3.556 -0.2794,0 -1.0414,0.635 -1.0414,1.3208 0,0.381 0.635,0.5588 1.1938,0.5842 0.4826,0.0508 0.9906,0.0508 1.4986,0.0508 0.127,0 0.127,0 -0.0762,1.1176 -0.2032,1.1176 -0.2032,1.1176 -0.3302,1.1176 -0.8382,0 -1.8288,-0.2286 -2.3876,-0.5334 -0.6604,-0.4064 -0.8636,-0.9906 -0.8636,-2.0828 0,-1.6764 1.5494,-3.937 2.0574,-3.937 1.3462,0 2.7686,3.4798 2.7686,5.3086 0,3.937 -3.6068,8.763 -8.2804,8.763 -2.7432,0 -6.4008,-0.5588 -6.4008,-1.0414 z m 7.28979,-16.484621 c 0,-0.7366 1.8288,-2.0066 2.286,-2.0066 1.524,0 4.1402,0.762 4.1402,0.9398 0,1.2954 -3.9624,3.175 -5.207,3.175 -0.1778,0 -0.381,-0.0762 -0.381,-0.2286 0,-0.2794 3.429,-1.651 3.556,-2.159 -0.8636,-0.254 -2.3368,-0.2794 -2.667,-0.2794 -0.5842,0 -1.3462,0.7112 -1.524,0.7112 -0.1016,0 -0.2032,-0.0508 -0.2032,-0.1524 z m -10.0838,8.763021 c 0,-0.7112 0.254,-1.6002 0.381,-1.6002 0.0508,0 0.0508,0.0508 0.0508,0.1016 0,0.381 0.6858,0.6604 1.5494,0.6604 2.1844,0 4.826,-1.27 4.826,-1.4732 0,-0.381 -1.6256,-3.6576 -3.4544,-4.3688 -0.3556,-0.1524 -0.9144,-0.254 -1.1176,-0.254 -0.127,0 -0.2794,-0.0508 -0.3048,-0.127 -0.1016,-0.1524 0.1524,-1.7272 0.2032,-1.8288 0.0508,-0.1778 0.3302,-0.2032 0.4318,-0.2032 1.9558,0 4.8006,3.7592 4.8006,5.8674 0,1.1938 -0.1524,2.4638 -0.508,2.8448 -0.4064,0.4064 -3.2004,1.6256 -5.0292,1.6256 -1.1938,0 -1.8288,-0.4064 -1.8288,-1.2446 z m 5.86744,-14.4018133 c -2.0066,0.9398003 -3.9878,1.8542003 -5.9944,2.7940003 -0.0508,0.0254 -0.127,0 -0.1524,-0.0508 0,-0.3302 0,-0.635 0,-0.9398 -0.0508,-0.0762 0.0508,-0.1524 0.1524,-0.2032 2.0066,-0.9398 3.9878,-1.8542002 5.9944,-2.7940002 0.0508,-0.0254 0.127,0 0.1524,0.0508 0,0.3302 0,0.635 0,0.9398 0.0508,0.0762 -0.0508,0.1523999 -0.1524,0.2031999 z M 163.32678,30.39661 c 0,-4.6482 1.9812,-8.1534 3.3528,-9.5504 -0.5588,-0.7366 -3.175,-1.6002 -3.175,-3.3274 0,-2.3368 1.6764,-5.5626 4.318,-5.5626 1.47319,0 3.14959,1.1176 3.14959,1.2954 0,0.127 -0.0254,0.2286 -0.1016,0.2286 -0.1778,0 -0.8382,-0.5588 -1.3208,-0.5588 -2.08279,0 -4.95299,2.0574 -4.95299,2.8448 0,1.3208 2.3368,3.1242 3.98779,3.1242 0.8128,0 4.8768,-3.7338 4.953,-3.7338 0.127,0 0.1016,0.2032 0.1016,0.3556 0,0.5588 -0.2032,1.1176 -0.508,1.6002 -1.0668,1.6002 -3.81,2.921 -5.56259,4.572 -2.3114,2.159 -3.3274,5.1054 -3.3274,7.747 0,5.1054 3.429,6.604 8.99159,6.604 2.6162,0 5.207,-0.3556 7.8486,-0.3556 0.1524,0 0.3556,-0.0254 0.3556,0.127 0,0.254 -2.1336,0.635 -3.4544,0.9652 -1.8796,0.4572 -3.0988,1.0668 -5.6642,1.0668 -6.29919,0 -8.99159,-2.4384 -8.99159,-7.4422 z M 162.99655,9.3399913 c 0,-0.3048 2.413,-1.651 3.556,-2.7432 0.3302,-0.3048 0.6604,-0.7112 0.8636,-0.9906 -0.381,-0.0508 -2.032,-0.7366 -2.032,-1.7272 0,-1.1429999 1.7272,-2.7177999 2.413,-2.7177999 0.8382,0 1.0668,1.0414 1.0668,2.0066 0,1.3461999 -0.254,2.6923999 -1.1176,3.7083999 -1.1938,1.3462 -3.9116,2.5654 -4.4196,2.5654 -0.1524,0 -0.3302,0.0508 -0.3302,-0.1016 z m 3.3528,-5.7403999 c 0.4064,0.3047999 1.2192,0.6857999 1.7018,0.8635999 0.2286,-0.3556 0.0508,-1.9049999 -0.6096,-1.9049999 -0.4318,0 -1.0668,0.6096 -1.0922,1.0414 z m -8.9408,21.9456186 c -0.254,0 -0.127,-0.7366 -0.127,-1.27 0,-1.0414 -0.1016,-2.794 -0.2286,-3.8354 -0.2032,-1.8034 -1.397,-9.4488 -1.397,-11.2775999 0,-0.5334 0.1778,-1.8795999 0.2794,-1.8795999 0.254,0 0.4064,0.7365999 0.4318,0.8127999 0.762,4.8513999 1.8542,11.9633999 1.8542,14.5541999 0,1.2954 -0.5334,2.8956 -0.8128,2.8956 z m -5.74038,-0.55876 c -0.2794,0.2032 -0.6096,0.3556 -0.9652,0.4572 -0.4572,0.1524 -0.9398,0.2286 -1.4478,0.2794 -0.4318,0.0762 -0.889,0.1016 -1.3462,0.1016 -0.127,0 -0.127,0 0.0762,-1.1176 0.2032,-1.1176 0.2032,-1.1176 0.3302,-1.1176 0.4572,0 0.9144,-0.0254 1.397,-0.0762 0.4826,-0.0508 0.9906,-0.127 1.4732,-0.2286 0.3302,-0.0762 0.6604,-0.1524 0.889,-0.4064 0.0508,-0.0762 0.1016,-0.1524 0.127,-0.2286 0.0254,-0.0762 0.0254,-0.2032 0.0254,-0.2286 0,-0.6858 -1.9304,-13.0809996 -1.9812,-13.3603996 -0.0762,-0.4317999 -0.5842,-0.6857999 -0.5842,-1.1429999 0,-0.4572 0.8382,-2.1336 1.1684,-2.1336 0.2286,0 0.3302,1.1938 0.6096,1.4732 0.2032,0.254 0.9652,0.4572 0.9652,0.7874 0,0.9652 -0.8636,1.7017999 -0.8636,1.8795999 -0.0254,0.2793996 1.5494,8.6867996 1.5494,11.2775996 0,0.5842 -0.254,2.413 -0.9906,3.3782 -0.127,0.1524 -0.254,0.2794 -0.4318,0.4064 z m -7.87398,-1.498614 c -0.1778,0.4318 -0.3556,0.7874 -0.4572,0.9652 -0.2032,0.3048 -0.508,0.508 -0.8128,0.6858 -0.3556,0.2286 -0.7366,0.4064 -1.143,0.508 -0.5842,0.1778 -1.1938,0.2032 -1.8034,0.2032 -0.127,0 -0.127,0 0.0762,-1.1176 0.2032,-1.1176 0.2032,-1.1176 0.3302,-1.1176 0.7112,0 1.4478,-0.0762 2.159,-0.3302 0.3048,-0.127 0.6096,-0.2794 0.889,-0.4826 0.2286,-0.2032 0.4064,-0.4572 0.6096,-0.6858 0.127,-0.1524 0.3302,-0.4064 0.381,-0.4572 0.0508,-0.0508 0.2032,-0.2286 0.3302,-0.2286 0.0254,0 0.1016,0.0508 0.127,0.0762 0.1016,0.0762 0.381,0.381 0.4572,0.4572 0.4826,0.5334 1.016,0.9652 1.651,1.27 0.3048,0.1524 0.635,0.2794 0.9652,0.3302 0.254,0.0254 0.508,0.0254 0.762,0.0254 0.127,0 0.127,0 -0.0762,1.1176 -0.2032,1.1176 -0.2032,1.1176 -0.3302,1.1176 -0.2794,0 -0.5334,0 -0.7874,-0.0508 -0.3302,-0.0508 -0.6604,-0.1778 -0.9906,-0.3048 -0.9144,-0.4064 -1.778,-0.9906 -2.286,-1.8796 0,-0.0254 -0.0254,-0.0762 -0.0508,-0.1016 z m 0.15239,6.426182 c -0.4826,-0.3048 -0.9906,-0.5842 -1.4986,-0.8636 -0.127,-0.0762 -0.1524,-0.1778 -0.0762,-0.3048 0.3048,-0.508 0.5842,-0.9906 0.8636,-1.4986 0.0762,-0.127 0.1778,-0.1524 0.3048,-0.0762 0.508,0.2794 0.9906,0.5842 1.4986,0.8636 0.127,0.0762 0.1524,0.1524 0.0762,0.3048 -0.2794,0.4826 -0.5842,0.9906 -0.8636,1.4986 -0.0762,0.127 -0.1524,0.1524 -0.3048,0.0762 z m 1.70181,-18.821398 c -2.0066,0.9398 -3.9878,1.8542 -5.9944,2.794 -0.0508,0.0254 -0.127,0 -0.1524,-0.0508 0,-0.3302 0,-0.635 0,-0.9398 -0.0508,-0.0762 0.0508,-0.1524 0.1524,-0.2032 2.0066,-0.9398 3.9878,-1.8542 5.9944,-2.7940004 0.0508,-0.0254 0.127,0 0.1524,0.0508 0,0.3302004 0,0.6350004 0,0.9398004 0.0508,0.0762 -0.0508,0.1524 -0.1524,0.2032 z m -10.18538,12.420602 c -0.1778,0.4318 -0.3556,0.7874 -0.4572,0.9652 -0.2032,0.3048 -0.508,0.508 -0.8128,0.6858 -0.3556,0.2286 -0.7366,0.4064 -1.143,0.508 -0.5842,0.1778 -1.1938,0.2032 -1.8034,0.2032 -0.127,0 -0.127,0 0.0762,-1.1176 0.2032,-1.1176 0.2032,-1.1176 0.3302,-1.1176 0.7112,0 1.4478,-0.0762 2.159,-0.3302 0.3048,-0.127 0.6096,-0.2794 0.889,-0.4826 0.2286,-0.2032 0.4064,-0.4572 0.6096,-0.6858 0.127,-0.1524 0.3302,-0.4064 0.381,-0.4572 0.0508,-0.0508 0.2032,-0.2286 0.3302,-0.2286 0.0254,0 0.1016,0.0508 0.127,0.0762 0.1016,0.0762 0.381,0.381 0.4572,0.4572 0.4826,0.5334 1.016,0.9652 1.651,1.27 0.3048,0.1524 0.635,0.2794 0.9652,0.3302 0.254,0.0254 0.508,0.0254 0.762,0.0254 0.127,0 0.127,0 -0.0762,1.1176 -0.2032,1.1176 -0.2032,1.1176 -0.3302,1.1176 -0.2794,0 -0.5334,0 -0.7874,-0.0508 -0.3302,-0.0508 -0.6604,-0.1778 -0.9906,-0.3048 -0.9144,-0.4064 -1.778,-0.9906 -2.286,-1.8796 0,-0.0254 -0.0254,-0.0762 -0.0508,-0.1016 z m -1.06677,6.32459 c -0.4826,-0.3048 -0.9906,-0.5842 -1.4986,-0.8636 -0.127,-0.0762 -0.1524,-0.1778 -0.0762,-0.3048 0.3048,-0.508 0.5842,-0.9906 0.8636,-1.4986 0.0762,-0.127 0.1778,-0.1524 0.3048,-0.0762 0.508,0.2794 0.9906,0.5842 1.4986,0.8636 0.127,0.0762 0.1524,0.1524 0.0762,0.3048 -0.2794,0.4826 -0.5842,0.9906 -0.8636,1.4986 -0.0762,0.127 -0.1524,0.1524 -0.3048,0.0762 z m 2.6924,-0.635 c -0.4826,-0.3048 -0.9906,-0.5842 -1.4986,-0.8636 -0.127,-0.0762 -0.1524,-0.1778 -0.0762,-0.3048 0.3048,-0.508 0.5842,-0.9906 0.8636,-1.4986 0.0762,-0.127 0.1778,-0.1524 0.3048,-0.0762 0.508,0.2794 0.9906,0.5842 1.4986,0.8636 0.127,0.0762 0.1524,0.1524 0.0762,0.3048 -0.2794,0.4826 -0.5842,0.9906 -0.8636,1.4986 -0.0762,0.127 -0.1524,0.1524 -0.3048,0.0762 z m 0.22857,-18.084807 c -2.0066,0.9398 -3.9878,1.8542 -5.9944,2.794 -0.0508,0.0254 -0.127,0 -0.1524,-0.0508 0,-0.3302 0,-0.635 0,-0.9398 -0.0508,-0.0762 0.0508,-0.1524 0.1524,-0.2032 2.0066,-0.9398 3.9878,-1.8542 5.9944,-2.7939995 0.0508,-0.0254 0.127,0 0.1524,0.0508 0,0.3301995 0,0.6349995 0,0.9397995 0.0508,0.0762 -0.0508,0.1524 -0.1524,0.2032 z M 125.81102,7.8160102 c 0,-0.6858 0.5842,-1.8796 0.6604,-1.8796 0.3302,0 0.6604,2.0573999 0.7366,2.7685999 0.127,0.9398 0.9398,8.0517999 1.0414,9.1693999 0.1016,0.9398 0.254,2.8448 0.889,4.1148 0.1524,0.3048 0.381,0.6858 0.5588,0.8636 0.127,0.1778 0.3048,0.3302 0.508,0.4572 0.1524,0.0762 0.3048,0.1524 0.4826,0.2032 0.3048,0.1016 0.635,0.127 0.9652,0.127 0.127,0 0.127,0 -0.0762,1.1176 -0.2032,1.1176 -0.2032,1.1176 -0.3302,1.1176 -0.381,0 -0.7112,-0.0762 -1.0668,-0.1778 -0.2286,-0.0762 -0.4572,-0.1778 -0.6604,-0.3048 -0.1778,-0.127 -0.3302,-0.2794 -0.4572,-0.4572 -0.5842,-0.6604 -0.9398,-1.4986 -1.143,-2.3622 -0.2794,-1.3462 -0.7874,-5.4864 -1.0922,-8.2296 -0.2286,-1.9812 -0.4572,-4.6227999 -0.8382,-5.8927999 -0.0762,-0.2032 -0.1778,-0.508 -0.1778,-0.6349999 z m -3.4036,16.9926118 c -0.1524,0.127 -0.3302,0.2286 -0.508,0.3048 -0.6858,0.3556 -1.4732,0.4572 -2.2606,0.5842 -0.635,0.0762 -1.27,0.1778 -1.905,0.1778 -0.127,0 -0.127,0 0.0762,-1.1176 0.2032,-1.1176 0.2032,-1.1176 0.3302,-1.1176 0.7112,0 1.4478,-0.0762 2.159,-0.2032 0.6096,-0.1016 1.2192,-0.2032 1.778,-0.4318 0.127,-0.0762 0.254,-0.127 0.3556,-0.2286 0.0762,-0.1016 0.127,-0.2286 0.127,-0.3048 0,-1.1176 -2.0574,-2.6162 -2.1336,-2.6924 -0.1016,-0.1778 0.3556,-2.0828 0.4826,-2.0828 0.1524,0 1.1938,0.889 1.651,1.5748 0.4318,0.6096 0.7112,1.6002 0.7112,2.3876 0,0.4572 0,0.9398 -0.0762,1.4224 -0.0762,0.6604 -0.3048,1.2954 -0.7874,1.7272 z m -1.70178,-9.144024 c -0.4826,-0.3048 -0.9906,-0.5842 -1.4986,-0.8636 -0.127,-0.0762 -0.1524,-0.1778 -0.0762,-0.3048 0.3048,-0.508 0.5842,-0.9906 0.8636,-1.4986 0.0762,-0.127 0.1778,-0.1524 0.3048,-0.0762 0.508,0.2794 0.9906,0.5842 1.4986,0.8636 0.127,0.0762 0.1524,0.1524 0.0762,0.3048 -0.2794,0.4826 -0.5842,0.9906 -0.8636,1.4986 -0.0762,0.127 -0.1524,0.1524 -0.3048,0.0762 z m 1.95582,-7.5946139 c -2.0066,0.9398 -3.9878,1.8542 -5.9944,2.7939999 -0.0508,0.0254 -0.127,0 -0.1524,-0.0508 0,-0.3302 0,-0.635 0,-0.9397999 -0.0508,-0.0762 0.0508,-0.1524 0.1524,-0.2032 2.0066,-0.9398 3.9878,-1.8541999 5.9944,-2.7939999 0.0508,-0.0254 0.127,0 0.1524,0.0508 0,0.3302 0,0.635 0,0.9398 0.0508,0.0762 -0.0508,0.1524 -0.1524,0.2031999 z M 112.29822,7.8160102 c 0,-0.6858 0.5842,-1.8796 0.6604,-1.8796 0.3302,0 0.6604,2.0573999 0.7366,2.7685999 0.127,0.9398 0.9398,8.0517999 1.0414,9.1693999 0.1016,0.9398 0.254,2.8448 0.889,4.1148 0.1524,0.3048 0.381,0.6858 0.5588,0.8636 0.127,0.1778 0.3048,0.3302 0.508,0.4572 0.1524,0.0762 0.3048,0.1524 0.4826,0.2032 0.3048,0.1016 0.635,0.127 0.9652,0.127 0.127,0 0.127,0 -0.0762,1.1176 -0.2032,1.1176 -0.2032,1.1176 -0.3302,1.1176 -0.381,0 -0.7112,-0.0762 -1.0668,-0.1778 -0.2286,-0.0762 -0.4572,-0.1778 -0.6604,-0.3048 -0.1778,-0.127 -0.3302,-0.2794 -0.4572,-0.4572 -0.5842,-0.6604 -0.9398,-1.4986 -1.143,-2.3622 -0.2794,-1.3462 -0.7874,-5.4864 -1.0922,-8.2296 -0.2286,-1.9812 -0.4572,-4.6227999 -0.8382,-5.8927999 -0.0762,-0.2032 -0.1778,-0.508 -0.1778,-0.6349999 z M 91.444817,22.01461 c 0,-1.016 1.1938,-3.7846 1.8288,-3.7846 0.1016,0 0.0254,0.4572 0,0.5842 -0.1016,0.3556 -0.6604,1.3462 -0.6858,2.0828 -0.127,2.159 2.8702,3.4036 4.9784,3.4036 5.207003,0 11.480803,-2.286 11.480803,-3.6322 0,-1.397 -2.0066,-3.1242 -2.0066,-3.302 0,-0.6096 0.4572,-1.9558 0.508,-1.9558 0.3048,0 2.2098,1.778 2.2098,4.0386 0,2.667 -1.143,3.8862 -2.9464,4.7244 -2.032,0.9398 -6.0198,2.0828 -8.940803,2.0828 -3.2258,0 -6.4262,-1.397 -6.4262,-4.2418 z m 7.264401,-5.003825 c -0.4826,-0.3048 -0.9906,-0.5842 -1.4986,-0.8636 -0.127,-0.0762 -0.1524,-0.1778 -0.0762,-0.3048 0.3048,-0.508 0.5842,-0.9906 0.8636,-1.4986 0.0762,-0.127 0.1778,-0.1524 0.3048,-0.0762 0.508,0.2794 0.9906,0.5842 1.4986,0.8636 0.127,0.0762 0.1524,0.1524 0.0762,0.3048 -0.2794,0.4826 -0.5842,0.9906 -0.8636,1.4986 -0.0762,0.127 -0.1524,0.1524 -0.3048,0.0762 z m 2.692402,-0.635 c -0.4826,-0.3048 -0.9906,-0.5842 -1.498602,-0.8636 -0.127,-0.0762 -0.1524,-0.1778 -0.0762,-0.3048 0.304802,-0.508 0.584202,-0.9906 0.863602,-1.4986 0.0762,-0.127 0.1778,-0.1524 0.3048,-0.0762 0.508,0.2794 0.9906,0.5842 1.4986,0.8636 0.127,0.0762 0.1524,0.1524 0.0762,0.3048 -0.2794,0.4826 -0.5842,0.9906 -0.8636,1.4986 -0.0762,0.127 -0.1524,0.1524 -0.3048,0.0762 z m 5.05458,12.395212 c -2.0066,0.9398 -3.9878,1.8542 -5.9944,2.794 -0.0508,0.0254 -0.127,0 -0.1524,-0.0508 0,-0.3302 0,-0.635 0,-0.9398 -0.0508,-0.0762 0.0508,-0.1524 0.1524,-0.2032 2.0066,-0.9398 3.9878,-1.8542 5.9944,-2.794 0.0508,-0.0254 0.127,0 0.1524,0.0508 0,0.3302 0,0.635 0,0.9398 0.0508,0.0762 -0.0508,0.1524 -0.1524,0.2032 z M 85.526618,25.54521 c -0.254,0 -0.127,-0.7366 -0.127,-1.27 0,-1.0414 -0.1016,-2.794 -0.2286,-3.8354 -0.2032,-1.8034 -1.397,-9.4488 -1.397,-11.2775999 0,-0.5334 0.1778,-1.8795999 0.2794,-1.8795999 0.254,0 0.4064,0.7365999 0.4318,0.8127999 0.762,4.8513999 1.8542,11.9633999 1.8542,14.5541999 0,1.2954 -0.5334,2.8956 -0.8128,2.8956 z m -10.744189,-1.397 c 0.0508,-0.0508 1.143,-0.9906 1.6764,-1.524 2.1844,-2.1082 3.048,-4.5974 3.048,-7.8994 0,-0.6096 -0.381,-5.4609999 -0.4572,-5.9435999 -0.1016,-0.508 -0.6096,-0.889 -0.6096,-1.3969999 0,-1.0414 0.9398,-2.1844 1.0668,-2.1844 0.127,0 0.1778,0.1524 0.2032,0.2794 0.0508,0.4826 0.2286,0.9398 0.5334,1.2954 0.3048,0.4064 0.9652,1.016 0.9652,1.0922 0,0.6603999 -0.8636,1.5493999 -0.8636,1.6763999 0,0.127 0.3556,3.0225999 0.1778,5.3339999 -0.2032,2.6416 -1.143,5.3594 -2.0574,6.7056 -0.6096,0.889 -1.905,2.1844 -1.905,2.2352 0,0.0508 2.7178,-0.2794 2.7686,-0.4572 0,0.0508 0,0.0508 0.254,1.016 0.2794,0.9652 0.2794,0.9652 0.2286,0.9652 -0.0762,0.0254 -5.9944,1.27 -6.096,1.27 -0.127,-0.0254 -0.1016,-2.032 -0.0254,-2.1336 0.0254,-0.0762 1.016,-0.2794 1.0922,-0.3302 z m 4.546631,-0.7874 c 0.0254,-0.0762 -1.143,-2.413 -2.667,-4.445 -1.6256,-2.1336 -4.7752,-5.4356 -5.1054,-5.4356 -0.127,0 -0.4572,0.0762 -0.6858,0.0762 -0.635,0 -2.3368,-0.7112 -2.5654,-0.9144 -0.3302,-0.2794 -1.016,-2.3622 -1.016,-3.7337999 0,-0.127 0.0254,-0.2794 0.1524,-0.2794 0.6096,0 3.6068,2.2351999 5.7404,4.4449999 2.2352,2.3622 6.9596,8.3566 6.9596,10.3632 0,0.762 -0.2286,1.8796 -0.3302,1.905 -0.0508,0.0254 -0.0508,0.0254 -0.2794,-0.9398 -0.2286,-0.9906 -0.2286,-0.9906 -0.2032,-1.0414 z m -5.841996,8.381994 c 0,-0.1778 -1.2446,-0.4826 -1.2446,-1.3208 0,-1.4732 1.8034,-3.0226 2.8702,-3.0226 0.381,0 0.9906,0.4318 0.9906,0.762 0,0.3302 -0.254,1.0922 -0.5588,1.0922 -0.2794,0 -0.7366,-0.7366 -1.016,-0.7366 -0.4826,0 -1.397,0.889 -1.397,1.1938 0,0.2286 0.762,1.0414 2.0828,1.0414 0.7874,0 2.159,-0.4064 2.3114,-0.4064 0.1524,0 0.3556,0.0508 0.3556,0.1016 0,0.2032 -0.3048,0.8128 -0.4064,0.9144 -0.1778,0.127 -1.651,0.381 -2.4384,0.6858 -0.8128,0.3048 -2.159,1.0922 -2.3114,1.0922 -0.127,0 -0.254,-0.0762 -0.254,-0.2032 0,-0.6858 1.016,-1.1684 1.016,-1.1938 z M 78.28767,34.4098 c -2.006599,0.9398 -3.987799,1.8542 -5.994399,2.794 -0.0508,0.0254 -0.127,0 -0.1524,-0.0508 0,-0.3302 0,-0.635 0,-0.9398 -0.0508,-0.0762 0.0508,-0.1524 0.1524,-0.2032 2.0066,-0.9398 3.9878,-1.8542 5.994399,-2.794 0.0508,-0.0254 0.127,0 0.1524,0.0508 0,0.3302 0,0.635 0,0.9398 0.0508,0.0762 -0.0508,0.1524 -0.1524,0.2032 z M 54.945047,24.681631 c -1.0414,0 -1.8796,-0.1778 -2.3368,-0.1778 -0.2032,0 -0.5334,0.1524 -0.9652,0.3048 -0.3556,0.1524 -0.7112,0.2794 -1.0922,0.381 -0.3302,0.0762 -0.6604,0.127 -1.016,0.1778 -0.2794,0.0254 -0.5588,0.0508 -0.8128,0.0508 -0.127,0 -0.127,0 0.0762,-1.1176 0.2032,-1.1176 0.2032,-1.1176 0.3302,-1.1176 0.3048,0 0.8636,0 0.9652,0 0.381,0 0.762,-0.0508 1.143,-0.127 0.5588,-0.1016 1.0922,-0.2286 1.6002,-0.4826 0.1016,-0.0508 0.4064,-0.1778 0.508,-0.2286 0.4572,-0.2286 0.889,-0.4826 1.2446,-0.8382 0.7112,-0.7112 1.143,-1.8796 1.2446,-1.8796 0.127,0 0.1016,0.1778 0.1016,0.3302 0,0.8636 -1.0668,2.7178 -1.0668,2.8956 0,0.2032 3.2258,-0.2286 4.3942,-1.27 0.5842,-0.4826 1.905,-3.0734 2.0574,-3.0734 0.127,0 0.1016,0.1778 0.1016,0.3302 0,0.6096 -0.5842,1.4478 -0.5842,1.6764 0,0.1778 1.4478,1.2192 2.7432,1.2192 0.1778,0 0.3302,-0.1016 0.3302,-0.254 0,-1.143 -0.3048,-2.413 -0.3048,-2.54 0,-0.6096 0.6096,-1.9304 0.6858,-1.9304 0.254,0 0.4318,1.524 0.4318,2.6924 0,1.8796 -1.0668,4.0894 -1.4986,4.0894 -1.7018,0 -3.1496,-1.5494 -3.302,-1.5494 -0.2286,0 -1.0668,1.1684 -1.7526,1.651 -0.5588,0.381 -1.7272,0.7874 -3.2258,0.7874 z M 51.922433,10.635417 c 0,-0.7365999 1.8288,-2.0065999 2.286,-2.0065999 1.524,0 4.1402,0.762 4.1402,0.9398 0,1.2953999 -3.9624,3.1749999 -5.207,3.1749999 -0.1778,0 -0.381,-0.0762 -0.381,-0.2286 0,-0.2794 3.429,-1.651 3.556,-2.159 -0.8636,-0.254 -2.3368,-0.2794 -2.667,-0.2794 -0.5842,0 -1.3462,0.7112 -1.524,0.7112 -0.1016,0 -0.2032,-0.0508 -0.2032,-0.1524 z M 30.789669,27.37401 c 0,-0.254 0.254,-0.4572 0.5334,-0.4572 4.3688,0 9.2202,-1.8288 11.2776,-5.207 0.6096,-1.016 1.27,-2.6924 1.27,-3.7592 0,-1.3716 -0.7874,-5.207 -0.7874,-7.8232 0,-0.9651999 0.3048,-2.2097999 0.4826,-2.2097999 0.2794,0 0.9144,4.0385999 1.3462,6.6039999 0.1778,1.0922 0.381,2.1844 0.5588,3.2766 0.2032,1.143 0.4318,2.4638 0.8128,3.3274 0.1778,0.4572 0.4572,0.889 0.7874,1.2192 0.2794,0.2794 0.5842,0.4826 0.9398,0.635 0.3556,0.1524 0.7366,0.2032 1.1176,0.2032 0.127,0 0.127,0 -0.0762,1.1176 -0.2032,1.1176 -0.2032,1.1176 -0.3302,1.1176 -0.4572,0 -0.889,-0.0508 -1.2954,-0.2032 -0.3302,-0.127 -0.6096,-0.3302 -0.8636,-0.5588 -0.2286,-0.2032 -0.4318,-0.4572 -0.5842,-0.7366 -0.1524,-0.3048 -0.381,-0.9652 -0.5334,-1.4478 -0.4572,-1.3208 -0.7366,-2.667 -0.889,-4.0386 -0.0762,1.3208 -0.381,2.6416 -0.9398,3.8608 -1.27,2.7178 -3.2258,4.0386 -4.6228,4.5466 -2.1844,0.7874 -6.5786,0.8636 -7.5184,0.8636 -0.3302,0 -0.6858,-0.0508 -0.6858,-0.3302 z M 44.912091,4.2092216 c -2.0066,0.9397999 -3.9878,1.8541999 -5.9944,2.7939999 -0.0508,0.0254 -0.127,0 -0.1524,-0.0508 0,-0.3302 0,-0.635 0,-0.9398 -0.0508,-0.0762 0.0508,-0.1524 0.1524,-0.2032 2.0066,-0.9398 3.9878,-1.8541999 5.9944,-2.7939999 0.0508,-0.0254 0.127,0 0.1524,0.0508 0,0.3302 0,0.635 0,0.9398 0.0508,0.0762 -0.0508,0.1524 -0.1524,0.2032 z M 34.24405,14.318391 c -0.0762,0 -0.127,0.3302 -0.254,0.4572 -0.127,0.127 -0.4318,0.127 -0.5334,0.127 -0.3302,0 -2.5146,-0.8128 -2.7432,-1.3716 -0.2286,-0.4826 -0.5588,-3.5813999 -0.2286,-3.5813999 0.2032,0 3.2258,1.7525999 4.7752,2.8701999 1.0668,0.762 2.362199,1.9304 3.073399,2.6416 1.397,1.3716 2.5908,2.9718 3.175,4.826 0.254,0.8128 0.4826,1.905 0.4826,2.5146 0,0.2794 -0.1778,0.5842 -0.1778,0.5842 -0.0254,0 -1.1176,-3.2512 -2.5908,-4.826 -0.889,-0.9906 -4.571999,-4.2418 -4.978399,-4.2418 z M 21.290055,24.757803 c -0.2286,0.1524 -0.4826,0.2794 -0.762,0.381 -0.1778,0.0762 -0.381,0.127 -0.5842,0.1778 -0.4064,0.1016 -0.8128,0.1524 -1.2192,0.1524 -0.127,0 -0.127,0 0.0762,-1.1176 0.2032,-1.1176 0.2032,-1.1176 0.3302,-1.1176 0.3302,0 0.6604,0 0.9906,-0.0508 0.381,-0.0762 0.7366,-0.1778 1.0922,-0.381 0.2032,-0.1016 0.4064,-0.254 0.5588,-0.4064 0.2286,-0.2032 0.4318,-0.4572 0.5588,-0.7366 0.3048,-0.6096 0.254,-1.3462 0.5588,-1.9812 0.127,-0.254 0.508,-0.9398 0.8382,-1.3716 0.4318,-0.5588 1.143,-1.143 1.6002,-1.143 1.4224,0 2.4638,3.6576 2.4638,4.9276 0,0.635 -0.2794,1.6764 -0.508,1.6764 -1.143,0 -2.032,0.0254 -2.667,-0.1016 -0.7112,-0.1524 -1.5748,-0.6096 -1.8034,-0.9906 -0.1524,0.381 -0.4318,0.889 -0.508,1.0414 -0.254,0.4318 -0.6096,0.7874 -1.016,1.0414 z m 5.3848,-3.1242 c 0,-0.2032 -0.8636,-2.1844 -1.8288,-2.1844 -0.7874,0 -1.524,1.1938 -1.524,1.3208 0,0.2794 3.3528,1.1684 3.3528,0.8636 z m 2.743221,4.597385 c -2.0066,0.9398 -3.9878,1.8542 -5.9944,2.794 -0.0508,0.0254 -0.127,0 -0.1524,-0.0508 0,-0.3302 0,-0.635 0,-0.9398 -0.0508,-0.0762 0.0508,-0.1524 0.1524,-0.2032 2.0066,-0.9398 3.9878,-1.8542 5.9944,-2.794 0.0508,-0.0254 0.127,0 0.1524,0.0508 0,0.3302 0,0.635 0,0.9398 0.0508,0.0762 -0.0508,0.1524 -0.1524,0.2032 z M 14.609877,23.132189 c -0.1778,0.4318 -0.3556,0.7874 -0.4572,0.9652 -0.2032,0.3048 -0.508,0.508 -0.8128,0.6858 -0.3556,0.2286 -0.7366,0.4064 -1.143,0.508 -0.5842,0.1778 -1.1938,0.2032 -1.8034,0.2032 -0.127,0 -0.127,0 0.0762,-1.1176 0.2032,-1.1176 0.2032,-1.1176 0.3302,-1.1176 0.7112,0 1.4478,-0.0762 2.159,-0.3302 0.3048,-0.127 0.6096,-0.2794 0.889,-0.4826 0.2286,-0.2032 0.4064,-0.4572 0.6096,-0.6858 0.127,-0.1524 0.3302,-0.4064 0.381,-0.4572 0.0508,-0.0508 0.2032,-0.2286 0.3302,-0.2286 0.0254,0 0.1016,0.0508 0.127,0.0762 0.1016,0.0762 0.381,0.381 0.4572,0.4572 0.4826,0.5334 1.016,0.9652 1.651,1.27 0.3048,0.1524 0.635,0.2794 0.9652,0.3302 0.254,0.0254 0.508,0.0254 0.762,0.0254 0.127,0 0.127,0 -0.0762,1.1176 -0.2032,1.1176 -0.2032,1.1176 -0.3302,1.1176 -0.2794,0 -0.5334,0 -0.7874,-0.0508 -0.3302,-0.0508 -0.6604,-0.1778 -0.9906,-0.3048 -0.9144,-0.4064 -1.778,-0.9906 -2.286,-1.8796 0,-0.0254 -0.0254,-0.0762 -0.0508,-0.1016 z m -1.066779,6.32459 c -0.4826,-0.3048 -0.9906,-0.5842 -1.4986,-0.8636 -0.127,-0.0762 -0.1524,-0.1778 -0.0762,-0.3048 0.3048,-0.508 0.5842,-0.9906 0.8636,-1.4986 0.0762,-0.127 0.1778,-0.1524 0.3048,-0.0762 0.508,0.2794 0.9906,0.5842 1.4986,0.8636 0.127,0.0762 0.1524,0.1524 0.0762,0.3048 -0.2794,0.4826 -0.5842,0.9906 -0.8636,1.4986 -0.0762,0.127 -0.1524,0.1524 -0.3048,0.0762 z m 2.6924,-0.635 c -0.4826,-0.3048 -0.9906,-0.5842 -1.4986,-0.8636 -0.127,-0.0762 -0.1524,-0.1778 -0.0762,-0.3048 0.3048,-0.508 0.5842,-0.9906 0.8636,-1.4986 0.0762,-0.127 0.1778,-0.1524 0.3048,-0.0762 0.508,0.2794 0.9906,0.5842 1.4986,0.8636 0.127,0.0762 0.1524,0.1524 0.0762,0.3048 -0.2794,0.4826 -0.5842,0.9906 -0.8636,1.4986 -0.0762,0.127 -0.1524,0.1524 -0.3048,0.0762 z M 10.825282,17.391771 c 0,-0.9652 0.4064,-2.1082 0.6858,-2.1082 0.1778,0 0.2286,0.2286 0.1524,0.4572 -0.1016,0.2794 -0.2032,0.5588 -0.2032,0.8636 0,0.3302 0.3048,0.5334 0.6604,0.5334 0.4572,0 0.9144,-0.3302 1.0922,-0.6604 0.2032,-0.3556 0.127,-0.7874 0.127,-1.2192 0,-0.2032 0.2794,-1.1176 0.508,-1.1176 0.4572,0 0.1778,0.7366 0.1778,1.6764 0,0.4318 0.4826,0.4826 0.9144,0.4826 0.254,0 0.889,-0.2032 0.889,-0.4064 0,-0.3048 -0.1778,-0.4826 -0.1778,-0.8636 0,-0.7112 0.2286,-1.5494 0.4826,-1.5494 0.381,0 0.508,1.143 0.508,2.032 0,1.3716 -1.4224,2.2352 -2.1844,2.2352 -0.3048,0 -0.4826,-0.1016 -0.6096,-0.2286 -0.2794,0.2794 -1.27,1.0414 -2.2098,1.0414 -0.4064,0 -0.8128,-0.381 -0.8128,-1.1684 z m 5.537196,-6.146787 c -2.0066,0.9398 -3.9878,1.8542 -5.9944,2.794 -0.0508,0.0254 -0.127,0 -0.1524,-0.0508 0,-0.3302 0,-0.635 0,-0.9398 -0.0508,-0.0762 0.0508,-0.1524 0.1524,-0.2032 2.0066,-0.9398 3.9878,-1.8542 5.9944,-2.794 0.0508,-0.0254 0.127,0 0.1524,0.0508 0,0.3302 0,0.635 0,0.9398 0.0508,0.0762 -0.0508,0.1524 -0.1524,0.2032 z M 0.89385346,23.86881 c 0,-1.7526 0.96519994,-3.3274 2.33679994,-4.3942 0.9652,-0.762 2.8194,-1.8288 2.8194,-2.0066 0,-1.5494 0.0508,-3.302 0.508,-3.302 0.1524,0 0.2286,0.1524 0.2286,0.3302 0,2.1336 0.9652,5.3086 1.2446,6.223 0.127,0.381 0.254,0.7874 0.4318,1.1684 0.1015999,0.254 0.2539999,0.508 0.4571999,0.7112 0.254,0.2286 0.5588,0.381 0.889,0.4572 0.2031997,0.0762 0.4063997,0.127 0.6349997,0.1778 0.1016,0.0254 0.2286,0.0254 0.3556,0.0254 0.127,0 0.127,0 -0.0762,1.1176 -0.2032,1.1176 -0.2032,1.1176 -0.3302,1.1176 -0.2032,0 -0.4063997,-0.0254 -0.5841997,-0.1016 -0.3556,-0.127 -0.6858,-0.3302 -0.9906,-0.5842 -0.3809999,-0.2794 -0.7365999,-0.635 -0.9905999,-1.0414 -0.3048,-0.4826 -0.4572,-1.016 -0.6096,-1.5748 0,0 -0.0508,-0.2286 -0.0762,-0.2286 -0.127,0 -0.7366,1.0668 -1.2192,1.5748 -0.635,0.6858 -1.4986,0.8382 -2.8956,0.8382 -0.9398,0 -2.13359994,-0.1778 -2.13359994,-0.508 z m 3.27659994,-1.5494 c 1.2446,0 2.5654,-0.3302 2.5654,-1.4224 0,-0.254 -0.4318,-2.032 -0.508,-2.032 -0.1016,0 -3.9878,2.54 -3.9878,3.0988 0,0.4826 1.0922,0.3556 1.9304,0.3556 z M 2.8750475,13.505621 c -0.4826,-0.3048 -0.9906,-0.5842 -1.4986,-0.8636 -0.127,-0.0762 -0.1524,-0.1778 -0.0762,-0.3048 0.3048,-0.508 0.5842,-0.9906 0.8636,-1.4986 0.0762,-0.127 0.1778,-0.1524 0.3048,-0.0762 0.508,0.2794 0.9906,0.5842 1.4986,0.8636 0.127,0.0762 0.1524,0.1524 0.0762,0.3048 -0.2794,0.4826 -0.5842,0.9906 -0.8636,1.4986 -0.0762,0.127 -0.1524,0.1524 -0.3048,0.0762 z m 2.6923999,-0.635 c -0.4825999,-0.3048 -0.9905999,-0.5842 -1.4985999,-0.8636 -0.127,-0.0762 -0.1524,-0.1778 -0.0762,-0.3048 0.3048,-0.508 0.5842,-0.9906 0.8636,-1.4986 0.0762,-0.127 0.1778,-0.1524 0.3047999,-0.0762 0.508,0.2794 0.9906,0.5842 1.4986,0.8636 0.127,0.0762 0.1524,0.1524 0.0762,0.3048 -0.2794,0.4826 -0.5842,0.9906 -0.8636,1.4986 -0.0762,0.127 -0.1524,0.1524 -0.3048,0.0762 z"
       id="text2"
       style="font-size:25.4px;font-family:'DigitalKhatt Madina Quranic';-inkscape-font-specification:'DigitalKhatt Madina Quranic';fill:#238fc7;stroke-width:0.264583"
       aria-label="مُسْتَوْدَعُ البَيَانَاتِ الإِسْلَامِيَّة" />
  </g>
</svg>
